# AST/ASF file generated using VICON BodyLanguage
# -----------------------------------------------
:version 1.10
:name VICON
:units
  mass 1.0
  length 0.45
  angle deg
:documentation
   .ast/.asf automatically generated from VICON data using
   VICON BodyBuilder and BodyLanguage model FoxedUp or BRILLIANT.MOD
:root
   order TX TY TZ RX RY RZ
   axis XYZ
   position 0 0 0  
   orientation 0 0 0 
:bonedata
  begin
     id 1 
     name lhipjoint
     direction 0.630082 -0.636569 0.44472 
     length 2.82754 
     axis 0 0 0  XYZ
  end
  begin
     id 2 
     name lfemur
     direction 0.34202 -0.939693 0  
     length 7.26371  
     axis 0 0 20  XYZ
    dof rx ry rz
    limits (-160.0 20.0)
           (-70.0 70.0)
           (-60.0 70.0)
  end
  begin
     id 3 
     name ltibia
     direction 0.34202 -0.939693 0   
     length 7.88616   
     axis 0 0 20   XYZ
    dof rx
    limits (-10.0 170.0)
  end
  begin
     id 4 
     name lfoot
     direction 0.0603448 -0.165796 0.984312   
     length 1.77861   
     axis -90 7.62852e-016 20   XYZ
    dof rx rz
    limits (-45.0 90.0)
           (-70.0 20.0)
  end
  begin
     id 5 
     name ltoes
     direction 1.53577e-011 -4.21876e-011 1   
     length 0.902235   
     axis -90 7.62852e-016 20   XYZ
    dof rx
    limits (-90.0 20.0)
  end
  begin
     id 6 
     name rhipjoint
     direction -0.656778 -0.61817 0.431866   
     length 2.9117  
     axis 0 0 0  XYZ 
  end
  begin
     id 7 
     name rfemur
     direction -0.34202 -0.939693 0   
     length 6.81603   
     axis 0 0 -20   XYZ
    dof rx ry rz
    limits (-160.0 20.0)
           (-70.0 70.0)
           (-70.0 60.0)
  end
  begin
     id 8 
     name rtibia
     direction -0.34202 -0.939693 0   
     length 8.05997   
     axis 0 0 -20   XYZ
    dof rx
    limits (-10.0 170.0)
 end
 begin
     id 9 
     name rfoot
     direction -0.0862404 -0.236944 0.967688   
     length 1.84899  
     axis -90 -7.62852e-016 -20   XYZ
    dof rx rz
    limits (-45.0 90.0)
           (-20.0 70.0)
  end
  begin
     id 10 
     name rtoes
     direction -1.53561e-011 -4.21798e-011 1   
     length 0.931579   
     axis -90 -7.62852e-016 -20   XYZ
    dof rx
    limits (-90.0 20.0)
  end
  begin
     id 11 
     name lowerback
     direction -0.0110203 0.991769 -0.127564   
     length 2.05686   
     axis 0 0 0   XYZ
    dof rx ry rz
    limits (-20.0 45.0)
           (-30.0 30.0)
           (-30.0 30.0)
  end
  begin
     id 12 
     name upperback
     direction 0.0109719 0.99993 -0.00432479   
     length 2.06234   
     axis 0 0 0   XYZ
    dof rx ry rz
    limits (-20.0 45.0)
           (-30.0 30.0)
           (-30.0 30.0)
  end
  begin
     id 13 
     name thorax
     direction 0.0173308 0.998351 0.0547306   
     length 2.09856   
     axis 0 0 0   XYZ
    dof rx ry rz
    limits (-20.0 45.0)
           (-30.0 30.0)
           (-30.0 30.0)
  end
  begin
     id 14 
     name lowerneck
     direction -0.0311736 0.989033 0.144366   
     length 1.98151   
     axis 0 0 0   XYZ
    dof rx ry rz
    limits (-20.0 45.0)
           (-30.0 30.0)
           (-30.0 30.0)
  end
  begin
     id 15 
     name upperneck
     direction 0.0421057 0.975772 -0.214698   
     length 2.01457   
     axis 0 0 0   XYZ
    dof rx ry rz
    limits (-20.0 45.0)
           (-30.0 30.0)
           (-30.0 30.0)
  end
  begin
     id 16
     name head
     direction 0.0136911 0.995958 -0.0887718  
     length 2.03562  
     axis 0 0 0   XYZ
    dof rx ry rz
    limits (-20.0 45.0)
           (-30.0 30.0)
           (-30.0 30.0)
  end
  begin
     id 17 
     name lclavicle
     direction 0.915335 0.396201 0.0720134  
     length 4.16217  
     axis 0 0 0   XYZ
    dof ry rz
    limits (-20.0 10.0)
           (0.0 20.0)
  end
  begin
     id 18 
     name lhumerus
     direction 1 -4.48965e-011 6.383e-018   
     length 4.93042   
     axis -180 -30 -90   XYZ
    dof rx ry rz
    limits (-60.0 90.0)
           (-90.0 90.0)
           (-90.0 90.0)
  end
  begin
     id 19
     name lradius
     direction 1 -4.48972e-011 8.8689e-027   
     length 3.68177   
     axis -180 -30 -90   XYZ
    dof rx
    limits (-10.0 170.0)
  end
  begin
     id 20
     name lwrist
     direction 1 -4.48953e-011 1.17971e-026   
     length 1.84089   
     axis -7.69454e-015 90 90   XYZ
    dof ry
    limits (-180.0 0.0)
 end
  begin
     id 21 
     name lhand
     direction 1 -4.49027e-011 2.35802e-026   
     length 0.721479   
     axis -1.50533e-014 90 90   XYZ
    dof rx rz
    limits (-90.0 90.0)
           (-45.0 45.0)
  end
  begin
     id 22 
     name lfingers
     direction 1 -4.48915e-011 4.72027e-026   
     length 0.581675   
     axis -3.01059e-014 90 90   XYZ
    dof rx
    limits (0.0 90.0)
  end
  begin
     id 23
     name lthumb
     direction 0.707107 -6.34948e-011 0.707107   
     length 0.835172   
     axis -90 45 -5.12164e-014   XYZ
    dof rx rz
    limits (-45.0 45.0)
           (-45.0 45.0)
  end
  begin
     id 24 
     name rclavicle
     direction -0.882781 0.469197 0.0234974   
     length 3.95647  
     axis 0 0 0   XYZ 
    dof ry rz
    limits (-10.0 20.0)
           (-20.0 0.0)
  end
  begin
     id 25 
     name rhumerus
     direction -1 -4.48965e-011 -1.54906e-018  
     length 5.07905   
     axis -180 30 90   XYZ
    dof rx ry rz
    limits (-90.0 60.0)
           (-90.0 90.0)
           (-90.0 90.0)
  end
  begin
     id 26 
     name rradius
     direction -1 -4.48972e-011 5.47489e-027   
     length 3.54394   
     axis -180 30 90   XYZ
    dof rx
    limits (-10.0 170.0)
  end
  begin
     id 27 
     name rwrist
     direction -1 -4.48955e-011 1.17969e-026   
     length 1.77197   
     axis -7.69454e-015 -90 -90   XYZ
    dof ry
    limits (-180.0 0.0)
  end
  begin
     id 28
     name rhand
     direction -1 -4.48982e-011 2.35888e-026   
     length 0.681156   
     axis -1.50533e-014 -90 -90   XYZ
    dof rx rz
    limits (-90.0 90.0)
           (-45.0 45.0)
  end
  begin
     id 29
     name rfingers
     direction -1 -4.48955e-011 4.71877e-026   
     length 0.549165   
     axis -3.01059e-014 -90 -90   XYZ
    dof rx
    limits (0.0 90.0)
  end
  begin
     id 30
     name rthumb
     direction -0.707107 -6.3491e-011 0.707107   
     length 0.788495   
     axis -90 -45 5.12164e-014   XYZ
    dof rx rz
    limits (-45.0 45.0)
           (-45.0 45.0)
  end
:hierarchy
  begin
    root lhipjoint rhipjoint lowerback
    lhipjoint lfemur
    lfemur ltibia
    ltibia lfoot
    lfoot ltoes
    rhipjoint rfemur
    rfemur rtibia
    rtibia rfoot
    rfoot rtoes
    lowerback upperback
    upperback thorax
    thorax lowerneck lclavicle rclavicle
    lowerneck upperneck
    upperneck head
    lclavicle lhumerus
    lhumerus lradius
    lradius lwrist
    lwrist lhand lthumb
    lhand lfingers
    rclavicle rhumerus
    rhumerus rradius
    rradius rwrist
    rwrist rhand rthumb
    rhand rfingers
  end

#!OML:ASF H:\Bending\Project 1\Capture day 1\Session 1\Subject.ASF
:FULLY-SPECIFIED
:DEGREES
145
root -10.7693 18.1588 -16.6312 236.879 88.5541 226.386
lowerback 21.7407 -1.34261 1.08757
upperback 4.48048 -0.978066 2.34634
thorax -7.22238 -0.337102 2.17575
lowerneck -21.6329 -2.76052 -5.09028
upperneck 11.7349 -2.77536 3.2902
head 7.22731 -1.24719 1.56359
rclavicle -9.14409e-015 -1.51076e-014
rhumerus -19.4519 24.4671 -91.1776
rradius 59.8619
rwrist -1.08003
rhand -29.5912 -41.276
rfingers 7.12502
rthumb -2.9227 -71.2357
lclavicle -9.14409e-015 -1.51076e-014
lhumerus -22.5274 -32.653 96.0902
lradius 67.4466
lwrist 45.4462
lhand -29.3649 20.7239
lfingers 7.12502
lthumb -2.70413 50.6865
rfemur -7.56796 -2.1459 14.272
rtibia 1.57405
rfoot -5.1344 -17.5451
rtoes 9.59047
lfemur -21.974 -6.83992 -10.563
ltibia 24.9183
lfoot -14.6025 3.51786
ltoes -10.3756
146
root -10.6679 18.1614 -16.6267 239.496 88.5095 229.513
lowerback 20.2308 -1.34612 1.13487
upperback 4.00966 -1.05465 2.34589
thorax -6.93637 -0.396921 2.14052
lowerneck -21.5982 -2.77857 -5.25487
upperneck 12.405 -2.79297 3.42404
head 7.44926 -1.25426 1.63311
rclavicle -2.98177e-015 -1.86858e-014
rhumerus -21.6293 24.7224 -91.6716
rradius 61.3819
rwrist -1.34267
rhand -29.2497 -41.0136
rfingers 7.12502
rthumb -2.59286 -70.9776
lclavicle -2.98177e-015 -1.86858e-014
lhumerus -24.4784 -32.7517 96.9313
lradius 68.3863
lwrist 45.8978
lhand -29.1268 20.3923
lfingers 7.12502
lthumb -2.47415 50.3577
rfemur -5.74515 -2.05216 14.3392
rtibia -1.51076e-014
rfoot -4.94296 -17.5008
rtoes 10.248
lfemur -20.7538 -7.34896 -10.5204
ltibia 24.4616
lfoot -14.9726 3.93246
ltoes -10.6114
147
root -10.5657 18.1629 -16.6212 240.81 88.398 231.271
lowerback 18.6888 -1.37427 1.19619
upperback 3.54791 -1.15399 2.38949
thorax -6.60991 -0.465906 2.14653
lowerneck -21.4895 -2.81313 -5.48543
upperneck 13.0236 -2.81847 3.57083
head 7.64447 -1.2675 1.71764
rclavicle -2.06736e-014 -1.59028e-014
rhumerus -23.6329 24.9373 -92.0448
rradius 62.8678
rwrist -1.45079
rhand -28.9733 -40.792
rfingers 7.12502
rthumb -2.3259 -70.759
lclavicle -2.06736e-014 -1.59028e-014
lhumerus -26.243 -32.7002 97.7293
lradius 69.3106
lwrist 46.3934
lhand -28.8026 20.0484
lfingers 7.12502
lthumb -2.16111 50.0172
rfemur -4.83334 -2.01794 14.4803
rtibia -6.36111e-015
rfoot -5.51682 -17.4578
rtoes 10.7824
lfemur -19.6682 -7.91682 -10.4358
ltibia 24.0892
lfoot -15.359 4.37003
ltoes -10.873
148
root -10.4643 18.1612 -16.6142 240.637 88.2516 231.56
lowerback 17.2178 -1.40882 1.24508
upperback 3.11547 -1.25537 2.46192
thorax -6.278 -0.532722 2.18839
lowerneck -21.3228 -2.87755 -5.76836
upperneck 13.6367 -2.87129 3.71301
head 7.83109 -1.29762 1.80657
rclavicle 1.45113e-014 4.17448e-014
rhumerus -25.4631 25.0657 -92.2965
rradius 64.2867
rwrist -1.35567
rhand -28.7832 -40.63
rfingers 7.12502
rthumb -2.14229 -70.599
lclavicle 1.45113e-014 4.17448e-014
lhumerus -27.8169 -32.5918 98.4767
lradius 70.1946
lwrist 46.9002
lhand -28.4235 19.7256
lfingers 7.12502
lthumb -1.79492 49.6978
rfemur -3.88965 -2.03307 14.6337
rtibia 2.38542e-015
rfoot -6.10014 -17.4399
rtoes 11.1619
lfemur -18.6136 -8.56061 -10.3498
ltibia 23.7858
lfoot -15.7707 4.81652
ltoes -11.059
149
root -10.3657 18.1546 -16.6062 238.987 88.1196 230.446
lowerback 15.8969 -1.43002 1.24895
upperback 2.72261 -1.33803 2.53495
thorax -5.9758 -0.586667 2.25215
lowerneck -21.1088 -2.97975 -6.07786
upperneck 14.2862 -2.96799 3.83775
head 8.02538 -1.35264 1.88926
rclavicle 7.7526e-015 2.38542e-015
rhumerus -27.1334 25.0719 -92.4563
rradius 65.6135
rwrist -1.05501
rhand -28.6769 -40.5276
rfingers 7.12502
rthumb -2.03968 -70.4976
lclavicle 7.7526e-015 2.38542e-015
lhumerus -29.2277 -32.5456 99.1712
lradius 71.0322
lwrist 47.3582
lhand -28.0042 19.4509
lfingers 7.12502
lthumb -1.38994 49.4261
rfemur -2.86477 -2.07606 14.7453
rtibia 0
rfoot -6.67123 -17.4469
rtoes 11.3423
lfemur -17.5162 -9.2582 -10.3273
ltibia 23.5281
lfoot -16.2041 5.23996
ltoes -11.0928
150
root -10.2725 18.1426 -16.5976 235.878 88.0476 227.952
lowerback 14.7521 -1.42295 1.18212
upperback 2.36854 -1.38713 2.57845
thorax -5.72185 -0.620678 2.31973
lowerneck -20.8569 -3.11975 -6.3834
upperneck 15.0018 -3.11725 3.94196
head 8.23926 -1.43523 1.95855
rclavicle -1.80894e-014 -1.47101e-014
rhumerus -28.6464 24.9401 -92.5744
rradius 66.8232
rwrist -0.598165
rhand -28.6646 -40.492
rfingers 7.12502
rthumb -2.02782 -70.4621
lclavicle -1.80894e-014 -1.47101e-014
lhumerus -30.5162 -32.6627 99.8132
lradius 71.833
lwrist 47.7104
lhand -27.5518 19.2394
lfingers 7.12502
lthumb -0.952986 49.217
rfemur -1.76861 -2.12619 14.7645
rtibia -1.51076e-014
rfoot -7.18718 -17.4737
rtoes 11.2485
lfemur -16.3578 -9.94648 -10.4274
ltibia 23.2899
lfoot -16.6371 5.60019
ltoes -10.9756
151
root -10.1868 18.1264 -16.5889 231.216 88.0547 223.946
lowerback 13.7567 -1.38328 1.03771
upperback 2.04492 -1.39905 2.57382
thorax -5.51339 -0.633668 2.376
lowerneck -20.5807 -3.28942 -6.65848
upperneck 15.7951 -3.31611 4.03093
head 8.47905 -1.5414 2.01219
rclavicle -1.76918e-014 -7.95139e-016
rhumerus -29.9855 24.677 -92.7024
rradius 67.8944
rwrist -0.071665
rhand -28.7838 -40.5477
rfingers 7.12502
rthumb -2.14286 -70.5167
lclavicle -1.76918e-014 -7.95139e-016
lhumerus -31.7146 -32.9858 100.405
lradius 72.6143
lwrist 47.9269
lhand -27.0907 19.0952
lfingers 7.12502
lthumb -0.507723 49.0744
rfemur -0.657689 -2.16999 14.6682
rtibia -3.97569e-015
rfoot -7.60275 -17.5123
rtoes 10.8123
lfemur -15.1729 -10.5446 -10.6726
ltibia 23.0489
lfoot -17.0333 5.86642
ltoes -10.8038
